<svg width="22" height="22" fill="none" xmlns="http://www.w3.org/2000/svg"><g clip-path="url(#search-svgrepo-com(1) 1__search-svgrepo-com(1) 1__search-svgrepo-com(1) 1__a)" fill="#659B8A"><path d="M15.783 14.748c-.32.37-.665.716-1.036 1.035L20.964 22 22 20.964l-6.217-6.216ZM8.349 0C3.745 0 0 3.745 0 8.349c0 4.603 3.745 8.349 8.349 8.349 4.603 0 8.349-3.746 8.349-8.35C16.698 3.746 12.952 0 8.348 0Zm4.522 12.871-1.035-1.035a4.937 4.937 0 0 0 0-6.974 4.937 4.937 0 0 0-6.974 0L3.826 3.826a6.403 6.403 0 0 1 9.045 0 6.403 6.403 0 0 1 0 9.045Z"/></g></svg>