<svg width="25" height="22" fill="none" xmlns="http://www.w3.org/2000/svg"><path d="M10.242 20.951c0 .58-.51 1.049-1.138 1.049-.628 0-1.138-.47-1.138-1.049s.51-1.049 1.138-1.049c.628 0 1.138.47 1.138 1.05Zm12.517-1.049c-.628 0-1.138.47-1.138 1.05 0 .578.51 1.048 1.138 1.048.628 0 1.138-.47 1.138-1.049s-.51-1.049-1.138-1.049ZM3.86 4.582 7.12 18.44a.56.56 0 0 0 .557.413H24.43c.314 0 .569-.235.569-.524V17.28c0-.29-.255-.524-.569-.524H9.479a.561.561 0 0 1-.556-.415L5.215.415C5.15.13 4.848-.05 4.54.012l-1.112.22c-.308.06-.503.34-.437.623l.135.582c.076.326-.193.635-.556.635H.569c-.314 0-.569.235-.569.524v1.049c0 .29.255.524.569.524h2.735a.56.56 0 0 1 .555.414Z" fill="#659B8A"/><path d="M10.242 20.951c0 .58-.51 1.049-1.138 1.049-.628 0-1.138-.47-1.138-1.049s.51-1.049 1.138-1.049c.628 0 1.138.47 1.138 1.05Zm12.517-1.049c-.628 0-1.138.47-1.138 1.05 0 .578.51 1.048 1.138 1.048.628 0 1.138-.47 1.138-1.049s-.51-1.049-1.138-1.049ZM3.86 4.582 7.12 18.44a.56.56 0 0 0 .557.413H24.43c.314 0 .569-.235.569-.524V17.28c0-.29-.255-.524-.569-.524H9.479a.561.561 0 0 1-.556-.415L5.215.415C5.15.13 4.848-.05 4.54.012l-1.112.22c-.308.06-.503.34-.437.623l.135.582c.076.326-.193.635-.556.635H.569c-.314 0-.569.235-.569.524v1.049c0 .29.255.524.569.524h2.735a.56.56 0 0 1 .555.414Z" fill="#659B8A"/><path d="M10.558 15.707h11.605a.561.561 0 0 0 .555-.411l2.024-8.391c.078-.327-.193-.638-.556-.638H8.535c-.364 0-.634.31-.556.638l2.024 8.39c.058.24.289.412.555.412Z" fill="#D9D9D9"/></svg>