<svg width="25" height="22" fill="none" xmlns="http://www.w3.org/2000/svg"><path d="m.795 10.627.563-1.26c.187-.42.54-.505.807-.356l8.819 5.44.22.136.241-.107 4.203-1.864-.233-.956-3.661.367a.57.57 0 0 1-.461-.19 1.05 1.05 0 0 1-.276-.656v-.001l-.093-1.225c-.044-.588.31-.938.594-.966L.795 10.627Zm0 0c-.212.474-.048 1.053.294 1.29l9.5 6.553-9.794-7.843ZM18.033 8.33l-6.515.659-.93 9.481c.12.082.244.111.356.1l6.132-.617.123-.012.113.046 3.56 1.455a.494.494 0 0 0 .238.037c.151-.015.321-.108.448-.314l2.396-3.894c.246-.4.184-.987-.13-1.307L18.496 8.52a.57.57 0 0 0-.462-.19Z" fill="#F8F8F4" stroke="#659B8A"/><path d="M12.085 3.361c.04 1.368-.588 2.508-1.92 3.486-1.679 1.234-2.48 2.675-2.487 2.69a.348.348 0 0 1-.29.19.342.342 0 0 1-.299-.169c-.013-.02-.905-1.403-2.638-2.503-1.385-.88-2.077-1.972-2.116-3.34-.047-1.629.834-3.394 2.56-3.457 1.155-.042 1.872.516 2.248.94A2.824 2.824 0 0 1 9.333.097c1.724-.063 2.705 1.635 2.752 3.264Z" fill="#E32020"/></svg>